<svg width="586" height="163" viewBox="0 0 586 163" fill="none" xmlns="http://www.w3.org/2000/svg">
<path d="M89 27L586 142H391.5H105L64.5 68.5L89 27Z" fill="#FFF0C7"/>
<path d="M138.545 135.8C134.652 135.8 131.212 135.267 128.225 134.2C125.239 133.08 122.385 131.293 119.665 128.84C118.545 127.88 117.985 126.787 117.985 125.56C117.985 124.6 118.359 123.747 119.105 123C119.852 122.2 120.732 121.8 121.745 121.8C122.652 121.8 123.425 122.093 124.065 122.68C126.199 124.653 128.385 126.12 130.625 127.08C132.919 127.987 135.505 128.44 138.385 128.44C141.745 128.44 144.572 127.667 146.865 126.12C149.212 124.573 150.385 122.627 150.385 120.28C150.332 117.507 149.159 115.373 146.865 113.88C144.625 112.333 141.185 111.053 136.545 110.04C131.052 108.92 126.812 107.08 123.825 104.52C120.892 101.96 119.425 98.4133 119.425 93.88C119.425 90.7333 120.252 87.9867 121.905 85.64C123.559 83.24 125.852 81.4 128.785 80.12C131.719 78.84 135.025 78.2 138.705 78.2C142.012 78.2 145.132 78.7333 148.065 79.8C150.999 80.8667 153.372 82.28 155.185 84.04C156.412 85.1067 157.025 86.2533 157.025 87.48C157.025 88.44 156.652 89.2933 155.905 90.04C155.212 90.7867 154.359 91.16 153.345 91.16C152.599 91.16 151.985 90.9467 151.505 90.52C150.119 89.1333 148.199 87.96 145.745 87C143.292 86.04 140.945 85.56 138.705 85.56C135.132 85.56 132.279 86.3067 130.145 87.8C128.065 89.24 127.025 91.16 127.025 93.56C127.025 96.1733 128.065 98.1733 130.145 99.56C132.279 100.947 135.425 102.12 139.585 103.08C143.745 103.987 147.132 105.053 149.745 106.28C152.412 107.507 154.465 109.213 155.905 111.4C157.345 113.587 158.065 116.44 158.065 119.96C158.065 123.053 157.185 125.8 155.425 128.2C153.719 130.6 151.372 132.467 148.385 133.8C145.399 135.133 142.119 135.8 138.545 135.8ZM198.388 93.08C199.508 93.08 200.414 93.4533 201.108 94.2C201.854 94.9467 202.228 95.8533 202.228 96.92V118.2C202.228 123.747 200.681 128.067 197.588 131.16C194.548 134.2 190.228 135.72 184.628 135.72C179.081 135.72 174.788 134.2 171.748 131.16C168.708 128.067 167.188 123.747 167.188 118.2V96.92C167.188 95.8533 167.534 94.9467 168.228 94.2C168.974 93.4533 169.881 93.08 170.948 93.08C172.068 93.08 172.974 93.4533 173.668 94.2C174.414 94.9467 174.788 95.8533 174.788 96.92V118.2C174.788 125.187 178.068 128.68 184.628 128.68C187.881 128.68 190.361 127.8 192.068 126.04C193.774 124.28 194.628 121.667 194.628 118.2V96.92C194.628 95.8533 194.974 94.9467 195.668 94.2C196.414 93.4533 197.321 93.08 198.388 93.08ZM234.954 92.12C244.554 92.12 249.354 97.88 249.354 109.4V131.16C249.354 132.227 248.981 133.133 248.234 133.88C247.541 134.627 246.634 135 245.514 135C244.447 135 243.541 134.627 242.794 133.88C242.101 133.133 241.754 132.227 241.754 131.16V109.48C241.754 106.333 241.034 103.827 239.594 101.96C238.154 100.093 235.807 99.16 232.554 99.16C230.421 99.16 228.474 99.64 226.714 100.6C225.007 101.507 223.647 102.76 222.634 104.36C221.674 105.907 221.194 107.613 221.194 109.48V131.16C221.194 132.227 220.821 133.133 220.074 133.88C219.381 134.627 218.474 135 217.354 135C216.234 135 215.327 134.653 214.634 133.96C213.941 133.213 213.594 132.28 213.594 131.16V96.92C213.594 95.8533 213.941 94.9467 214.634 94.2C215.381 93.4533 216.287 93.08 217.354 93.08C218.474 93.08 219.381 93.4533 220.074 94.2C220.821 94.9467 221.194 95.8533 221.194 96.92V99.72C222.581 97.5867 224.501 95.8 226.954 94.36C229.461 92.8667 232.127 92.12 234.954 92.12ZM293.983 131.8C294.41 131.8 294.783 131.96 295.103 132.28C295.423 132.6 295.583 132.973 295.583 133.4C295.583 133.88 295.423 134.28 295.103 134.6C294.783 134.867 294.41 135 293.983 135H264.623C264.143 135 263.743 134.84 263.423 134.52C263.157 134.2 263.023 133.827 263.023 133.4V80.6C263.023 80.1733 263.183 79.8 263.503 79.48C263.823 79.16 264.223 79 264.703 79C265.183 79 265.583 79.16 265.903 79.48C266.223 79.8 266.383 80.1733 266.383 80.6V131.8H293.983ZM306.66 133.4C306.66 133.827 306.5 134.2 306.18 134.52C305.86 134.84 305.487 135 305.06 135C304.58 135 304.18 134.84 303.86 134.52C303.594 134.2 303.46 133.827 303.46 133.4V95.4C303.46 94.9733 303.62 94.6 303.94 94.28C304.26 93.96 304.634 93.8 305.06 93.8C305.54 93.8 305.914 93.96 306.18 94.28C306.5 94.6 306.66 94.9733 306.66 95.4V133.4ZM305.06 88.36C304.207 88.36 303.514 88.12 302.98 87.64C302.5 87.16 302.26 86.5467 302.26 85.8V85.16C302.26 84.4133 302.527 83.8 303.06 83.32C303.594 82.84 304.287 82.6 305.14 82.6C305.887 82.6 306.5 82.84 306.98 83.32C307.514 83.8 307.78 84.4133 307.78 85.16V85.8C307.78 86.5467 307.514 87.16 306.98 87.64C306.5 88.12 305.86 88.36 305.06 88.36ZM334.825 94.76C335.198 94.76 335.545 94.92 335.865 95.24C336.185 95.56 336.345 95.9067 336.345 96.28C336.345 96.7067 336.185 97.08 335.865 97.4C335.598 97.6667 335.251 97.8 334.825 97.8H326.025V126.28C326.025 128.627 326.425 130.2 327.225 131C328.078 131.747 329.145 132.12 330.425 132.12C330.638 132.12 330.931 132.067 331.305 131.96C331.731 131.853 332.078 131.8 332.345 131.8C332.718 131.8 333.038 131.96 333.305 132.28C333.571 132.547 333.705 132.867 333.705 133.24C333.705 133.72 333.385 134.147 332.745 134.52C332.105 134.84 331.358 135 330.505 135C329.171 135 328.051 134.92 327.145 134.76C326.238 134.547 325.278 133.827 324.265 132.6C323.305 131.32 322.825 129.267 322.825 126.44V97.8H316.265C315.891 97.8 315.545 97.64 315.225 97.32C314.905 97 314.745 96.6533 314.745 96.28C314.745 95.8533 314.878 95.5067 315.145 95.24C315.465 94.92 315.838 94.76 316.265 94.76H322.825V84.6C322.825 84.1733 322.985 83.8 323.305 83.48C323.625 83.16 323.998 83 324.425 83C324.905 83 325.278 83.16 325.545 83.48C325.865 83.8 326.025 84.1733 326.025 84.6V94.76H334.825ZM376.467 125.4C376.84 125.4 377.16 125.56 377.427 125.88C377.693 126.147 377.827 126.467 377.827 126.84C377.827 127.213 377.72 127.533 377.507 127.8C375.747 130.147 373.56 132.067 370.947 133.56C368.333 135.053 365.533 135.8 362.547 135.8C358.547 135.8 355 134.947 351.907 133.24C348.813 131.533 346.387 129.107 344.627 125.96C342.92 122.813 342.067 119.16 342.067 115C342.067 110.733 342.893 107 344.547 103.8C346.253 100.547 348.493 98.0667 351.267 96.36C354.04 94.6533 357 93.8 360.147 93.8C363.293 93.8 366.2 94.4933 368.867 95.88C371.587 97.2133 373.8 99.24 375.507 101.96C377.213 104.68 378.12 108.04 378.227 112.04C378.227 112.467 378.067 112.867 377.747 113.24C377.427 113.56 377.053 113.72 376.627 113.72H345.187V114.76C345.187 118.067 345.853 121.107 347.187 123.88C348.52 126.6 350.493 128.76 353.107 130.36C355.72 131.96 358.867 132.76 362.547 132.76C365.107 132.76 367.507 132.147 369.747 130.92C372.04 129.64 373.827 128.04 375.107 126.12C375.48 125.64 375.933 125.4 376.467 125.4ZM360.147 97C358.173 97 356.147 97.5333 354.067 98.6C352.04 99.6133 350.227 101.16 348.627 103.24C347.08 105.267 346.04 107.747 345.507 110.68H374.947V109.96C374.68 107.24 373.8 104.92 372.307 103C370.867 101.027 369.053 99.5333 366.867 98.52C364.733 97.5067 362.493 97 360.147 97Z" fill="black"/>
<path d="M45.3279 13.2557C49.4892 15.6582 45.1538 18.8815 42.095 24.1794C39.0363 29.4772 38.4126 34.8435 34.2513 32.441C30.09 30.0384 29.1962 23.796 32.2549 18.4982C35.3136 13.2003 41.1666 10.8532 45.3279 13.2557Z" fill="#7597C5"/>
<rect x="62.6469" y="138.834" width="62.5041" height="14.1578" rx="7.07889" transform="rotate(179.409 62.6469 138.834)" fill="#7597C5"/>
<path d="M41.4848 46.0854C38.8454 42.8713 38.4709 38.359 40.5444 34.7537L50.1387 18.0712C52.3548 14.218 56.8484 12.29 61.1678 13.3393L87.0231 19.6198C93.5075 21.195 96.6593 28.5583 93.3229 34.3372L75.1621 65.7927C71.6691 71.8426 63.2071 72.5378 58.7736 67.1389L41.4848 46.0854Z" fill="#7597C5"/>
<rect x="1.52588e-05" y="75.3096" width="53.0254" height="8.01497" rx="4.00749" transform="rotate(-60 1.52588e-05 75.3096)" fill="#7597C5"/>
<rect x="7.05367" y="124.621" width="45.9127" height="8.01497" rx="4.00749" transform="rotate(-98.8375 7.05367 124.621)" fill="#7597C5"/>
<ellipse rx="2.67166" ry="2.67166" transform="matrix(-0.491751 0.870736 0.870735 0.491752 78.9051 32.0865)" fill="black"/>
<ellipse rx="2.67166" ry="2.67166" transform="matrix(-0.491751 0.870736 0.870735 0.491752 66.2052 54.5742)" fill="black"/>
<path d="M79.3393 42.7162C80.0398 43.3698 80.5171 44.2028 80.6993 45.09C80.8815 45.9773 80.7589 46.8707 80.3498 47.6361C79.9408 48.4015 79.2674 48.9975 78.4309 49.3345C77.5944 49.6714 76.64 49.7311 75.7112 49.5046L75.9996 47.9108C76.5569 48.0467 77.1295 48.0109 77.6314 47.8087C78.1333 47.6065 78.5374 47.2489 78.7828 46.7897C79.0282 46.3305 79.1018 45.7944 78.9925 45.262C78.8831 44.7297 78.5968 44.2299 78.1765 43.8377L79.3393 42.7162Z" fill="black"/>
</svg>
