<svg width="1920" height="820" viewBox="0 0 1920 820" fill="none" xmlns="http://www.w3.org/2000/svg">
<path d="M1920 819.5C1920 602.155 1818.86 393.712 1638.82 240.026C1458.79 86.34 1214.61 1.64091e-05 960 0C705.392 -1.64091e-05 461.213 86.3399 281.178 240.026C101.143 393.712 3.84447e-05 602.155 0 819.5L960 819.5H1920Z" fill="#FFCCA5"/>
<path d="M1798 819.5C1798 727.246 1776.31 635.896 1734.17 550.665C1692.03 465.434 1630.27 387.991 1552.41 322.757C1474.55 257.524 1382.11 205.779 1280.38 170.475C1178.65 135.171 1069.61 117 959.5 117C849.387 117 740.351 135.171 638.62 170.475C536.888 205.779 444.453 257.524 366.591 322.758C288.729 387.991 226.966 465.434 184.827 550.665C142.688 635.896 121 727.246 121 819.5L959.5 819.5H1798Z" fill="#FFBD8B"/>
<path d="M1630 819.5C1630 742.217 1612.67 665.691 1579 594.291C1545.33 522.891 1495.98 458.015 1433.76 403.368C1371.55 348.72 1297.69 305.372 1216.4 275.797C1135.11 246.222 1047.99 231 960 231C872.014 231 784.89 246.222 703.602 275.797C622.314 305.372 548.454 348.72 486.238 403.368C424.023 458.015 374.671 522.891 341.001 594.291C307.33 665.691 290 742.217 290 819.5L960 819.5H1630Z" fill="#FFAE72"/>
<path d="M1501 819.5C1501 689.942 1443.95 565.69 1342.4 474.078C1240.85 382.467 1103.11 331 959.5 331C815.885 331 678.153 382.467 576.602 474.078C475.051 565.69 418 689.942 418 819.5L959.5 819.5H1501Z" fill="#FFA058"/>
</svg>
